<svg width="185" height="185" xmlns="http://www.w3.org/2000/svg"><path style="fill:#333" d="M145 45h20v10h-20zm-50 0h20v10H95zm-50 0h20v10H45zm75 0h20v10h-20zm-50 0h20v10H70zm73 15-18 17v13l25 25v3l-7 8-8-8v-13h-10v17l18 18 17-18v-12l-25-25v-3l8-8 7 8v13h10V77zm-43 0v40L85 85V60H75v80h10v-40l15 15v25h10V60zm-75 0v80h10l25-25V85L35 60zm10 15 15 15v20l-15 15zM20 45h20v10H20zm125 100h20v10h-20zm-50 0h20v10H95zm-50 0h20v10H45zm75 0h20v10h-20zm-50 0h20v10H70zm-50 0h20v10H20z"/><path style="fill:#777" d="M50 60h10v17L50 67zm85 80h-10v-10zm15 0h10v-10zm-15-80h-10v10zm15 0h10v10zM50 140h10v-18l-10 10zM85 22h15l-7-12zM0 180h185v5H0zm10-10h165v5H10zM93 2 0 21v9h185v-9zm0 6 87 17H5zM20 160h145v5H20zM10 35h165v5H10z"/></svg>
